<!-- <?xml version="1.0" encoding="utf-8"?> -->
<!-- Generator: Adobe Illustrator 25.3.0, SVG Export Plug-In . SVG Version: 6.00 Build 0)  -->
<svg version="1.1" id="Capa_1" xmlns="http://www.w3.org/2000/svg" xmlns:xlink="http://www.w3.org/1999/xlink" x="0px" y="0px"
	 viewBox="0 0 436.5 512.4" style="enable-background:new 0 0 436.5 512.4;" xml:space="preserve">
<style type="text/css">
	.st0{fill:#bf5151;}
</style>
<g>
	<path class="st0" d="M382.2,150.3l17.2-17.2l7.8,7.8c1.9,1.9,4.3,2.8,6.7,2.8c2.4,0,4.9-0.9,6.7-2.8c3.7-3.7,3.7-9.7,0-13.4
		L385,91.8c-3.7-3.7-9.7-3.7-13.4,0c-3.7,3.7-3.7,9.7,0,13.4l7.8,7.8l-17.2,17.2c-32.8-28.8-74.4-48-120.1-53V28.5h16.6
		c7.9,0,14.2-6.4,14.2-14.2S266.4,0,258.6,0h-80.7c-7.9,0-14.2,6.4-14.2,14.2s6.4,14.2,14.2,14.2h16.6v48.7
		C85.3,89.1,0,181.8,0,294.2c0,120.3,97.9,218.3,218.3,218.3s218.3-97.9,218.3-218.3C436.5,239.1,416,188.8,382.2,150.3z
		 M218.3,479.2c-102,0-185-83-185-185s83-185,185-185s185,83,185,185S320.3,479.2,218.3,479.2z"/>
	<path class="st0" d="M297.3,194.6L217.9,274L174,230.1c-5.6-5.6-14.6-5.6-20.1,0c-5.6,5.6-5.6,14.6,0,20.1l64,64l99.5-99.5
		c5.6-5.6,5.6-14.6,0-20.1C311.8,189.1,302.8,189.1,297.3,194.6z"/>
</g>
</svg>
